<svg id="SvgjsSvg1006" width="288" height="288" xmlns="http://www.w3.org/2000/svg" version="1.1" xmlns:xlink="http://www.w3.org/1999/xlink" xmlns:svgjs="http://svgjs.com/svgjs"><defs id="SvgjsDefs1007"></defs><g id="SvgjsG1008" transform="matrix(1,0,0,1,0,0)"><svg xmlns="http://www.w3.org/2000/svg" enable-background="new 0 0 509.242 509.242" viewBox="0 0 509.242 509.242" width="288" height="288"><path fill="#da1010" d="M502.421,203.242c0-4.4-3.6-8-8-8h-484c-4.4,0-8,3.6-8,8v16.4c0,4.4,3.6,8,8,8h484c4.4,0,8-3.6,8-8
	V203.242L502.421,203.242z" class="color13a289 svgShape"></path><path fill="#659c35" d="M346.821 213.242c1.2 0 2.4-.4 4-.8 6-2 9.6-8.8 7.2-15.2l-63.2-185.6c-2-6-8.8-9.6-15.2-7.2-6 2-9.6 8.8-7.2 15.2l63.2 185.6C337.221 210.042 341.621 213.242 346.821 213.242zM240.021 4.442c-6-2-12.8 1.2-15.2 7.2l-62 181.6-1.2 4c-2 6 1.2 12.8 7.2 15.2 1.2.4 2.4.8 4 .8 4.8 0 9.6-3.2 11.2-8l2.8-8.8 60-176.8C249.621 13.642 246.421 6.842 240.021 4.442zM32.821 471.642c1.2 17.2 16.4 31.6 34 31.6h378.8c17.2 0 32.4-14 34-31.6l17.6-244.4h-19.6-39.6-422L32.821 471.642zM394.421 276.042c0-6.4 5.6-12 12-12s12 5.2 12 12v185.2c0 6.4-5.6 12-12 12s-12-5.2-12-12V276.042zM318.421 276.042c0-6.4 5.6-12 12-12s12 5.2 12 12v185.2c0 6.4-5.6 12-12 12s-12-5.2-12-12V276.042zM242.421 276.042c0-6.4 5.6-12 12-12 6.4 0 12 5.2 12 12v185.2c0 6.4-5.6 12-12 12-6.4 0-12-5.2-12-12V276.042zM170.421 276.042c0-6.4 3.6-12 10-12s10 5.2 10 12v185.2c0 6.4-3.6 12-10 12s-10-5.2-10-12V276.042zM94.421 276.042c0-6.4 5.6-12 12-12s12 5.2 12 12v185.2c0 6.4-5.6 12-12 12s-12-5.2-12-12V276.042z" class="color61c2ab svgShape"></path><path fill="#f4efef" d="M254.421 469.642c6.4 0 12-5.2 12-12v-185.2c0-6.4-5.6-12-12-12-6.4 0-12 5.2-12 12v185.2C242.421 464.042 248.021 469.642 254.421 469.642zM180.421 469.642c6.4 0 10-5.2 10-12v-185.2c0-6.4-3.6-12-10-12s-10 5.2-10 12v185.2C170.421 464.042 174.021 469.642 180.421 469.642zM106.421 469.642c6.4 0 12-5.2 12-12v-185.2c0-6.4-5.6-12-12-12s-12 5.2-12 12v185.2C94.421 464.042 100.021 469.642 106.421 469.642zM406.421 469.642c6.4 0 12-5.2 12-12v-185.2c0-6.4-5.6-12-12-12s-12 5.2-12 12v185.2C394.421 464.042 400.021 469.642 406.421 469.642zM330.421 469.642c6.4 0 12-5.2 12-12v-185.2c0-6.4-5.6-12-12-12s-12 5.2-12 12v185.2C318.421 464.042 324.021 469.642 330.421 469.642z" class="colorf4efef svgShape"></path><path d="M330.821,201.242h-142c-2.4,0-4-1.6-4-4s1.6-4,4-4h142c2.4,0,4,1.6,4,4S333.221,201.242,330.821,201.242z" fill="#000000" class="color000 svgShape"></path><path d="M442.421 233.242h-423.2c-6 0-18.8-9.2-18.8-16.4v-15.6c0-1.6.8-3.2 2-4.4 3.2-3.2 9.6-3.2 16-3.2h.8 139.2c2.4 0 4 1.6 4 4s-1.6 4-4 4h-140c-5.2 0-8.4.4-10 .8v14.8c.4 2.4 8 8 10.8 8.4h423.2c2.4 0 4 1.6 4 4S444.821 233.242 442.421 233.242zM500.421 233.242h-18c-2.4 0-4-1.6-4-4s1.6-4 4-4h17.6c.4-1.6.4-5.6.4-7.2v-16.8h-142c-2.4 0-4-1.6-4-4s1.6-4 4-4h143.2c2 0 4 0 5.6 1.6s1.6 3.6 1.6 5.2v16.8 1.2c0 4.4 0 10-3.2 13.2C504.021 232.442 502.421 233.242 500.421 233.242z" fill="#000000" class="color000 svgShape"></path><path d="M449.221 509.242h-378.8c-18.8 0-36.4-17.6-37.6-37.2l-17.6-242.4c0-2.4 1.6-4 3.6-4.4 2.4 0 4 1.6 4.4 3.6l17.6 242.4c1.2 16 15.2 30 30 30h378.8c14.8 0 28.8-14 30-30l17.6-241.2c0-2.4 2-4 4.4-3.6 2.4 0 4 2 3.6 4.4l-17.6 241.2C485.621 492.042 468.421 509.242 449.221 509.242zM346.821 217.242c-6.8 0-12.8-4.4-14.8-10.8l-63.2-185.6c-1.2-4-1.2-8.4.8-12s5.2-6.8 9.2-8c8.4-2.8 17.2 1.6 20 10l63.2 185.6c1.2 4 1.2 8.4-.8 12s-5.2 6.8-9.2 8C350.021 216.842 348.421 217.242 346.821 217.242zM283.621 8.042c-.8 0-1.6 0-2.4.4-2 .8-3.6 2-4.4 4-.8 2-1.2 4-.4 6l63.2 185.6c1.2 4 6 6.4 10 4.8 2-.8 3.6-2 4.4-4 .8-2 1.2-4 .4-6l-63.2-185.6C290.021 10.042 286.821 8.042 283.621 8.042zM173.221 217.242c-1.6 0-3.6-.4-5.2-.8-4-1.2-7.2-4-9.2-8-2-3.6-2-8-.8-12l63.2-185.6c1.2-4 4.4-7.2 8-9.2 4-2 8-2 12-.8s7.2 4.4 9.2 8 2 8 .8 12l-63.2 185.6C186.021 212.842 180.021 217.242 173.221 217.242zM236.421 8.042c-1.2 0-2.4.4-3.6.8-2 .8-3.2 2.4-4 4.4l-63.2 185.6c-.8 2-.4 4 .4 6 .8 2 2.4 3.2 4.4 4 4 1.2 8.4-.8 10-4.8l63.2-185.6c.8-2 .4-4-.4-6-.8-2-2.4-3.2-4.4-4C238.021 8.042 237.221 8.042 236.421 8.042z" fill="#000000" class="color000 svgShape"></path><path d="M252.421 473.642c-8.8 0-16-7.2-16-16v-185.2c0-8.8 7.2-16 16-16 8.8 0 16 7.2 16 16v185.2C268.421 466.442 261.221 473.642 252.421 473.642zM252.421 264.442c-4.4 0-8 3.6-8 8v185.2c0 4.4 3.6 8 8 8 4.4 0 8-3.6 8-8v-185.2C260.421 268.042 256.821 264.442 252.421 264.442zM180.021 473.642c-8.8 0-15.6-6.8-15.6-16v-185.2c0-8.8 7.2-16 16-16s16 7.2 16 16v185.2C196.421 466.042 188.821 473.642 180.021 473.642zM180.421 264.442c-4.4 0-8 3.6-8 8v185.2c0 4.4 3.2 8 7.6 8 4.4 0 8.4-3.6 8.4-8v-185.2C188.421 268.042 184.821 264.442 180.421 264.442zM104.421 473.642c-8.8 0-16-7.2-16-16v-185.2c0-8.8 7.2-16 16-16s16 7.2 16 16v185.2C120.421 466.442 113.221 473.642 104.421 473.642zM104.421 264.442c-4.4 0-8 3.6-8 8v185.2c0 4.4 3.6 8 8 8s8-3.6 8-8v-185.2C112.421 268.042 108.821 264.442 104.421 264.442zM404.421 473.642c-8.8 0-16-7.2-16-16v-185.2c0-8.8 7.2-16 16-16s16 7.2 16 16v185.2C420.421 466.442 413.221 473.642 404.421 473.642zM404.421 264.442c-4.4 0-8 3.6-8 8v185.2c0 4.4 3.6 8 8 8s8-3.6 8-8v-185.2C412.421 268.042 408.821 264.442 404.421 264.442zM328.421 473.642c-8.8 0-16-7.2-16-16v-185.2c0-8.8 7.2-16 16-16s16 7.2 16 16v185.2C344.421 466.442 337.221 473.642 328.421 473.642zM328.421 264.442c-4.4 0-8 3.6-8 8v185.2c0 4.4 3.6 8 8 8s8-3.6 8-8v-185.2C336.421 268.042 332.821 264.442 328.421 264.442z" fill="#000000" class="color000 svgShape"></path></svg></g></svg>